<?xml version="1.0" encoding="utf-8"?>
<!-- Generator: Adobe Illustrator 16.0.4, SVG Export Plug-In . SVG Version: 6.00 Build 0)  -->
<!DOCTYPE svg PUBLIC "-//W3C//DTD SVG 1.1//EN" "http://www.w3.org/Graphics/SVG/1.1/DTD/svg11.dtd">
<svg version="1.1" id="Layer_1" xmlns="http://www.w3.org/2000/svg" xmlns:xlink="http://www.w3.org/1999/xlink" x="0px" y="0px"
	 width="1235.172px" height="502.35px" viewBox="0 0 1235.172 502.35" enable-background="new 0 0 1235.172 502.35"
	 xml:space="preserve">
<path fill="#FE91A1" d="M0,249.042c0.302-0.055,0.604-0.062,0.909-0.021c2.653,6.689,2.679,13.376-0.019,20.062l-0.447,0.034
	L0,269.042C0,262.375,0,255.708,0,249.042z"/>
<path fill="#FE082C" d="M0.89,269.083c0.006-6.688,0.013-13.376,0.019-20.063c3.9-41.253,37.103-71.102,74.148-75.616
	c6.328-0.771,12.626,0.405,18.917,0.771c13.133,0.763,26.262,0.9,39.403,0.85c0.479-0.135,0.869-0.014,1.157,0.396
	c1.347,0.821-0.739,4.412,2.797,3.45c2.298-0.762,2.129-4.369,5.056-4.384c10.812-4.802,22.263-7.625,33.602-10.772
	c14.728-4.088,29.634-7.331,44.754-9.673c14.357-2.224,28.086-0.138,41.686,4.538c14.59,5.017,27.836,12.467,40.522,21.09
	c13.4,9.109,20.104,22.256,22.717,37.759c5.014,29.743,7.754,59.675,7.295,89.882c-0.518,34.013-8.914,66.012-23.624,96.563
	c-7.291,15.145-14.652,30.197-24.61,43.82c-11.167,15.277-24.39,27.431-42.895,34.011c-10.76,3.825-21.314,8.11-32.489,10.578
	c-6.224,1.373-12.583,1.519-18.876,0.667c-4.163-0.562-8.015-2.158-10.461-5.967c-1.019-1.191-0.216-2.141,0.417-3.109
	c5.572-8.551,10.85-17.266,15.279-26.48c0.885-1.844,2.771-2.789,4.826-3.192c5.913,0.848,11.641,2.521,17.743,2.575
	c11.044,0.102,21.15-2.9,28.94-10.381c10.528-10.109,22.017-19.592,29.63-32.295c10.616-17.713,21.134-35.528,28.593-54.901
	c5.673-14.736,8.503-29.986,9.306-45.797c1.376-27.131-2.771-53.735-6.485-80.412c-1.634-11.738-8.312-20.716-15.397-29.751
	c-13.134-16.746-31.08-21.448-51.087-22.969c-21.229-1.612-39.578,5.567-57.167,16.114c-4.143,2.484-8.313,4.92-12.435,7.441
	c-4.215,2.579-5.858,6.201-5.729,10.859c0.129,4.675,0.817,9.301,1.888,13.841c3.182,13.492,5.115,27.042,5.321,41.011
	c0.156,10.629,0.751,21.287,0.68,31.938c-0.035,5.293-0.339,10.615-2.038,15.727c-1.464,1.168-3.129,0.898-4.779,0.64
	c-6.907-1.082-13.908-1.264-20.829-2.226c-3.723-0.518-7.336,0.201-10.744,1.645c-21.136,8.953-42.704,16.85-63.711,26.115
	c-4.458,1.966-9.125,3.223-14.042,3.02c-8.708-0.355-17.177,1.941-25.831,2.201c-3.061,0.092-4.948,2.504-7.155,4.242
	c-1.905,1.502-3.116,4.014-5.955,4.189c-5.5-16.883-9.488-34.154-13.184-51.494C3.496,293.511,1.776,281.353,0.89,269.083z"/>
<path fill="#A10031" d="M200.077,455.109c-4.426,2.017-5.13,7.031-7.231,10.483c-4.308,7.078-8.497,14.292-12.84,21.392
	c-1.717-2.201-3.44-4.396-5.149-6.604c-2.398-3.096-5.194-3.865-8.553-1.507c-0.817,0.574-1.741,1.022-2.472,1.687
	c-14.116,12.821-31.312,13.262-48.852,12.035c-4.615-0.322-9.185-1.308-13.769-2.027c-19.097-3.002-30.688-16.221-41.344-30.584
	c-15.686-21.146-24.992-45.209-31.774-70.394c-0.559-2.076-1.093-4.16-1.639-6.24c0.968-1.414,2.513-1.463,3.985-1.699
	c11.005-1.758,21.892-4.274,32.992-5.41c11.058-1.131,20.969-4.825,29.35-12.277c0.619-0.552,1.416-0.906,2.011-1.475
	c8.214-7.832,18.669-9.4,29.295-10.941c13.976-2.025,27.856-4.701,41.822-6.824c2.097-0.318,4.224-1.225,6.304,0.103
	c1.523,2.04,1.094,4.434,1.2,6.726c0.437,9.473-0.774,18.891-0.943,28.335c-0.39,21.734,6.047,41.893,14.796,61.459
	c1.896,4.239,5.085,7.29,8.994,9.721C197.84,452.047,200.148,452.504,200.077,455.109z"/>
<path d="M406.57,329.229c0.789,26.994,1.479,52.121,2.3,77.241c0.174,5.303,0.623,10.619,1.358,15.871
	c0.379,2.7,2.684,4.176,5.36,4.441c2.716,0.271,3.369,2.062,3.091,4.143c-0.275,2.067-0.785,3.967-3.787,4.355
	c-10.279,1.333-20.567,0.562-30.85,0.596c-2.839,0.01-5.034-1.562-4.773-4.556c0.246-2.837,0.502-6.581,4.314-6.871
	c3.305-0.252,3.363-2.164,3.336-4.31c-0.1-8.299,0.951-16.522,0.232-24.9c-1.979-23.058-0.269-46.233-1.393-69.324
	c-0.809-16.619-0.578-33.257-1.408-49.884c-0.401-8.016,0.332-16.239,0.502-24.372c0.068-3.231-0.385-5.353-4.453-3.952
	c-1.526,0.525-3.31,0.619-4.936,0.471c-1.938-0.176-4.892,1.085-5.337-2.069c-0.407-2.888,0.588-5.676,3.519-7.072
	c1.16-0.553,2.564-0.716,3.875-0.814c6.688-0.499,6.799-0.479,6.269-7.193c-1.313-16.617-1.233-33.265-1.323-49.911
	c-0.023-4.492-0.613-9.004-0.335-13.469c0.271-4.353-1.581-5.255-5.276-4.433c-2.567,0.571-5.401,1.82-6.217-2.312
	c-0.801-4.058,1.285-6.079,5.008-6.342c8.955-0.63,17.93-1.471,26.893-1.425c18.67,0.096,37.271-1.159,55.898-2.001
	c8.787-0.396,10.039,0.872,10.485,9.752c0.195,3.874-0.198,7.616-1.858,11.177c-0.871,1.869-1.836,3.674-4.276,3.36
	c-2.489-0.32-3.577-2.119-4.076-4.413c-2.058-9.454-2.045-9.956-12.024-10.37c-12.453-0.517-24.944-0.099-37.42-0.083
	c-2.529,0.004-3.424,1.307-3.444,3.787c-0.181,22.65-0.392,45.3-0.726,67.948c-0.052,3.5,1.379,4.19,4.532,3.924
	c10.274-0.869,20.44-2.913,30.821-2.692c3.506,0.075,7.12-0.103,7.438,4.476c0.312,4.533-3.06,5.91-6.834,6.149
	c-10.265,0.653-20.533,1.33-30.812,1.621c-3.679,0.104-5.185,1.38-5.097,4.944C405.809,277.509,404.236,304.338,406.57,329.229z"/>
<path d="M1018.889,285.304c-1.121-28.854,2.643-54.132,4.34-79.528c0.166-2.491,0.133-4.998,0.369-7.48
	c0.844-8.879,1.248-7.197-6.982-6.088c-4.361,0.588-8.824,0.947-12.971,3.035c-3.18,1.603-5.029,0.21-4.668-3.58
	c0.156-1.652-0.086-3.344,0.088-4.993c0.252-2.385,1.949-3.866,4.104-3.306c6.359,1.654,12.104-1.459,18.168-1.861
	c2.896-0.191,3.688-1.591,3.742-4.483c0.299-15.682,2.965-31.094,5.988-46.429c0.639-3.244,0.9-7.459,4.803-8.685
	c5.506-1.73,11.234-1.542,16.645,0.648c2.506,1.014,1.498,3.431,1.064,5.29c-3.588,15.402-6.625,30.888-7.99,46.677
	c-0.215,2.49-0.504,3.667,2.773,3.156c14.422-2.246,28.936-0.299,43.408-0.593c4.562-0.093,5.863,3.265,6.105,6.999
	c0.264,4.058-3.215,3.708-5.643,3.967c-7.461,0.797-14.879-0.737-22.375-0.642c-7.975,0.103-15.936,1.448-23.922,0.469
	c-2.734-0.335-2.768,1.685-3.098,3.501c-2.062,11.34-3.236,22.781-2.947,34.293c0.537,21.518-3.463,42.866-2.35,64.371
	c0.973,18.77-0.988,37.652,2.355,56.326c1.092,6.098,2.4,12.064,6.043,17.24c2.092,2.976,4.9,5.582,8.496,5.353
	c4.002-0.255,5.279-4.085,6.4-7.45c1.021-3.062,0.996-6.871,5.42-7.408c1.854-0.226,3.887,0.088,2.793,2.51
	c-4.389,9.703-3.871,20.904-9.717,30.232c-2.666,4.256-6.191,7.122-10.461,8.738c-3.975,1.503-7.668,0.371-11.227-2.995
	c-10.84-10.256-13.328-23.823-14.314-37.321C1021.551,330.875,1017.756,306.579,1018.889,285.304z"/>
<path d="M726.065,311.112c-1.348-21.078,0.66-41.631,2.766-62.163c0.986-9.606,1.229-9.445-7.949-8.937
	c-3.25,0.18-6.143,1.083-9.082,2.269c-4.516,1.822-5.721,0.996-5.795-3.679c-0.121-7.6-0.111-7.283,7.598-7.539
	c4.939-0.163,9.834-1.516,14.771-2.155c2.217-0.288,2.043-1.762,2.109-3.242c0.236-5.318,0.861-10.656,0.613-15.952
	c-0.678-14.452,2.004-28.484,4.857-42.492c0.662-3.245,0.896-7.398,4.988-8.503c5.387-1.454,10.951-1.393,16.197,0.666
	c2.305,0.904,1.701,3.226,1.154,5.261c-5.033,18.675-5.672,38.086-9.523,56.958c-0.771,3.784-0.252,4.55,4.045,3.783
	c15.178-2.708,30.562-0.94,45.861-1.087c4.283-0.042,5.943,3.075,6.273,6.973c0.354,4.202-3.213,4.047-5.475,4.092
	c-7.105,0.142-14.219-0.423-21.328-0.455c-8.979-0.041-17.959,0.29-26.938,0.209c-2.949-0.026-4.125,0.735-4.174,3.848
	c-0.6,38.097-3.818,76.157-1.902,114.279c0.48,9.565,1.121,19.295,4.85,28.396c1.596,3.899,3.533,7.508,7.447,9.66
	c4.18,2.301,7.156,1.512,9.166-2.867c1.031-2.248,1.594-4.709,2.379-7.07c1.02-3.07,3.607-4.42,6.211-3.379
	c2.613,1.047,0.48,3.394-0.074,5.113c-1.377,4.268-2.361,8.614-3.355,12.989c-1.961,8.62-4.598,17.027-13.121,21.885
	c-5.324,3.035-9.744,2.125-14.207-2.104c-10.957-10.383-13.127-24.222-14.115-37.894
	C728.694,355.577,725.176,333.282,726.065,311.112z"/>
<path d="M892.266,368.92c5.846-29.741,13.426-57.594,21.326-85.256c7.777-27.224,13.387-55.199,24.932-81.281
	c1.457-3.291,0.213-4.188-2.781-4.277c-1.164-0.034-2.33-0.084-3.492-0.163c-2.098-0.144-4.787,0.366-5.006-2.732
	c-0.215-3.052,1.629-5.161,4.557-5.682c2.758-0.491,5.627-0.418,8.447-0.479c4.33-0.095,8.664-0.214,12.99-0.091
	c2.939,0.084,5.615,0.702,5.943,4.571c0.32,3.786-2.564,5.122-4.926,4.924c-6.67-0.562-8.178,3.957-10.098,8.632
	c-8.986,21.884-14.514,44.82-20.717,67.552c-6.463,23.689-14.129,47.075-18.781,71.229c-3.338,17.322-5.857,34.777-5.848,52.5
	c0.002,2.146-0.453,4.288-0.645,6.438c-0.49,5.574-0.979,5.855-6.691,5.108c-5.232-0.685-8.777-1.578-10.885-8.171
	c-7.807-24.416-12.623-49.562-19.479-74.19c-6.672-23.968-12.174-48.179-16.49-72.703c-2.412-13.703-5.428-27.358-9.438-40.742
	c-1.891-6.311,0.146-8.898,6.857-8.951c0.832-0.006,1.672,0.157,2.494,0.088c14.354-1.212,12.578,1.034,15.266,12.558
	c9.658,41.409,16.918,83.311,25.207,125.002C886.684,351.209,888.436,359.588,892.266,368.92z"/>
<path d="M553.562,333.426c-0.332-13.614,0.646-26.743,1.287-39.881c0.357-7.351-0.156-14.614-1.44-21.854
	c-0.89-5.017,0.793-6.685,5.913-6.168c4.158,0.42,8.293,0.647,12.417-0.389c3.198-0.804,5.149,0.076,5.116,3.854
	c-0.207,23.125-0.297,46.25-0.526,69.375c-0.166,16.652,0.229,33.302,1.495,49.887c0.923,12.093,9.285,17.731,21.234,15.485
	c2.612-0.49,5.229-0.961,7.84-1.459c8.945-1.703,13.233-6.851,14.186-15.954c2.123-20.284,0.559-40.588,0.225-60.854
	c-0.41-24.785-2.277-49.539-4.362-74.258c-0.348-4.119-0.08-8.304,0.089-12.45c0.123-2.979-0.603-4.78-4.063-4.771
	c-2.861,0.008-6.309-0.508-6.244-4.087c0.07-3.915,3.467-4.761,6.902-4.867c6.844-0.211,13.651,0.242,20.446,0.977
	c1.602,0.173,3.578,0.064,3.982,2.203c0.43,2.264-0.736,4.441-2.777,4.695c-8.527,1.058-7.301,7.147-7.123,12.858
	c0.891,28.93-0.287,57.942,2.076,86.79c1.621,19.758,0.414,39.229-2.295,58.656c-1.105,7.922-7.234,13.136-14.118,16.817
	c-6.545,3.5-13.695,4.992-21.131,5.007c-4.334,0.008-8.703-0.354-12.992,0.083c-6.641,0.678-11.166-3.057-16.219-6.354
	c-8.896-5.809-10.172-14.688-10.218-23.905c-0.071-14.305,0.47-28.61,0.685-42.918C553.982,337.627,553.68,335.304,553.562,333.426z
	"/>
<path d="M492.991,215.605c8.394-6.934,17.224-10.966,26.478-12.364c13.918-2.103,28.014-2.109,38.918,9.512
	c2.389,2.547,5.155,4.761,7.387,7.43c3.623,4.335,2.051,9.147-3.293,10.807c-1.267,0.394-2.684,0.525-3.787,1.186
	c-3.905,2.342-6.01,0.792-7.737-2.908c-3.618-7.745-8.444-14.904-17.195-16.921c-12.179-2.806-23.51-0.282-30.114,12.941
	c-8.564,17.146-12.22,35.212-11.746,54.395c0.637,25.793,0.328,51.59,1.806,77.387c0.685,11.953,1.274,23.897,2.362,35.828
	c0.597,6.554-1.469,8.519-7.977,8.241c-4.32-0.186-8.621-0.8-12.939-1.063c-2.848-0.175-3.697-1.599-3.438-4.258
	c2.742-28.219,0.349-56.523,1.435-84.772c1.133-29.474-0.478-58.942-0.326-88.417c0.011-2.158-0.258-4.316-0.324-6.478
	c-0.189-6.141-0.191-6.223-6.589-5.445c-1.755,0.213-2.612-0.451-2.796-1.931c-0.239-1.941-0.713-4.287,1.92-5.015
	c4.382-1.212,8.263-4.143,13.312-3.206c2.523,0.469,5.28-0.409,7.938-0.55c5.192-0.275,6.674,1.12,6.702,6.173
	C493.004,208.958,492.991,211.743,492.991,215.605z"/>
<path fill="#FD8C07" d="M171.843,345.288c-18.331,2.984-36.582,6.718-55.021,8.695c-12.331,1.322-20.185,9.486-29.374,15.638
	c-5.124,3.43-10.237,5.726-16.251,6.633c-14.93,2.253-29.826,4.724-44.74,7.103c-2.546-8.741-5.865-17.267-7.215-26.328
	c2.734-2.633,5.556-5.182,8.169-7.93c1.529-1.606,3.268-2.063,5.352-2.086c9.784-0.101,19.413-2.003,29.219-2.301
	c8.559-0.26,15.853-5.516,23.72-8.488c14.507-5.479,28.802-11.521,43.19-17.32c5.033-2.029,9.717-5.344,15.491-4.801
	c8.066,0.756,16.113,1.717,24.168,2.592c1.154,0.125,2.307,0.269,3.459,0.402c1.32,1.238,1.494,2.896,1.529,4.537
	c0.139,6.401,0.166,12.807-0.017,19.207C173.478,342.478,173.302,344.146,171.843,345.288z"/>
<path d="M660.006,292.591c0.199-19.812,1.369-39.637,0.086-59.433c-0.268-4.123,1.375-5.52,5.096-5.188
	c4.133,0.368,8.26,0.826,12.379,1.335c2.762,0.341,2.531,2.442,2.615,4.503c0.863,20.982-0.207,41.96-0.156,62.94
	c0.037,15.638-0.363,31.276-0.48,46.916c-0.018,2.315,0.168,4.712,0.779,6.927c0.494,1.787,0.926,4.133,3.477,4.374
	c2.365,0.224,4.145-0.983,5.414-2.875c1.283-1.914,2.42-3.927,3.662-5.868c0.777-1.214,1.734-1.209,2.986-0.546
	c1.125,0.597,2.416,1.365,1.799,2.548c-4.811,9.223-6.111,20.7-16.309,26.508c-6.074,3.461-10.609,2.277-14.514-3.651
	c-4.371-6.644-6.934-13.878-6.875-22.022C660.098,330.237,660.006,311.414,660.006,292.591z"/>
<path d="M956.51,307.042c-0.516-13.657-0.111-27.324-1.07-40.963c-0.34-4.833,1.818-6.676,6.283-6.829
	c15.605-0.535,13.359-3.065,13.41,12.278c0.066,19.992-0.061,39.986-0.15,59.979c-0.021,4.348,0.217,8.67,1.033,12.932
	c0.436,2.271,0.977,4.851,3.895,5.082c2.539,0.199,4.338-1.422,5.646-3.481c1.061-1.668,2.025-3.396,3.016-5.106
	c0.768-1.332,1.889-1.076,3.055-0.74c1.346,0.387,1.711,1.317,1.746,2.643c0.17,6.553-11.406,24.514-17.578,27.182
	c-4.682,2.024-8.623,1.137-11.984-2.846c-4.547-5.381-7.23-11.562-7.273-18.666C956.452,334.683,956.51,320.862,956.51,307.042z"/>
<path d="M796.038,335.162c0.018-12.815-0.215-25.629-0.938-38.425c-0.234-4.166,1.568-5.838,5.332-6.104
	c17.168-1.209,14.318-2.812,14.504,12.643c0.246,20.308,0.037,40.619,0.1,60.93c0.006,1.967,0.494,3.941,0.852,5.895
	c0.371,2.028,1.023,4.127,3.346,4.479c2.535,0.384,4.412-1.1,5.746-3.168c1.166-1.807,2.199-3.697,3.348-5.518
	c0.773-1.228,1.912-1.121,3.088-0.66c1.23,0.483,2.203,1.512,1.625,2.678c-4.691,9.453-6.098,21.025-16.705,26.722
	c-5.119,2.75-8.793,1.922-12.781-2.452c-5.053-5.539-7.432-12.152-7.488-19.56C795.967,360.134,796.038,347.647,796.038,335.162z"/>
<path d="M270.37,105.386c-18.411,11.098-33.767,24.627-54.236,28.675c-1.39,0.274-2.604,1.179-4.256,0.31
	c-9.102-4.783-18.399-9.183-25.855-16.593c-2.239-2.226-2.107-3.468,0.085-5.531c5.929-5.582,11.66-11.374,17.437-17.115
	c1.465-1.456,2.864-2.459,5.208-2.081C228.899,96.298,248.713,101.164,270.37,105.386z"/>
<path d="M231.805,69.096c9.443-7.917,18.343-15.348,27.197-22.834c1.444-1.222,2.807-1.188,4.562-0.76
	c13.191,3.221,26.391,6.42,39.646,9.369c2.51,0.559,2.748,1.106,2.003,3.448c-2.665,8.372-6.045,16.347-11.106,23.596
	c-1.12,1.604-2.095,2.25-3.997,1.873c-15.433-3.057-30.954-5.686-46.219-9.558C239.876,73.213,236.066,71.703,231.805,69.096z"/>
<path d="M199.833,39.509c0,13.838,0.002,26.431-0.001,39.024c-0.001,3.838-0.036,7.74,2.357,10.989
	c1.145,1.555,0.429,2.348-0.563,3.308c-5.962,5.771-11.975,11.493-17.861,17.342c-1.909,1.896-2.566,1.001-3.358-0.896
	c-4.278-10.25-7.618-20.826-11.113-31.352c-0.649-1.956,0.218-3.098,1.338-4.398C180.136,62.488,189.612,51.424,199.833,39.509z"/>
<path d="M290.614,86.472c-5.105,6.271-10.502,10.899-16.107,15.312c-1.073,0.845-2.113,1.284-3.63,0.97
	c-17.518-3.634-35.063-7.141-52.579-10.783c-2.532-0.526-6.312-0.789-6.962-2.9c-0.788-2.558,3.235-3.554,4.763-5.613
	c7.191-9.691,15.611-11.35,27.33-7.155C258.297,81.623,274.175,83.886,290.614,86.472z"/>
<path d="M229.257,67.357c-1.452-12.681-0.361-24.378-1.649-35.858c-0.957-8.53,2.179-12.5,9.799-14.947
	c5.945-1.909,11.58-4.773,17.54-6.779c2.936-0.988,4.023-1.22,3.749,2.637c-0.684,9.598-0.878,19.229-1.217,28.85
	c-0.048,1.351,0.064,2.667-1.114,3.643C247.592,52.165,238.823,59.431,229.257,67.357z"/>
<path fill="#010101" d="M207.579,87.137c-2.136-3.208-2.344-6.396-2.389-9.534c-0.191-13.299-0.221-26.6-0.418-39.897
	c-0.033-2.22,0.526-3.631,2.583-4.771c5.018-2.782,9.885-5.834,15.24-9.032c0.483,16.037,0.879,31.394,1.51,46.74
	c0.064,1.561-0.665,2.062-1.44,2.775C217.783,77.9,212.863,82.34,207.579,87.137z"/>
<path d="M265.077,41.308c8.269-6.368,16.154-12.438,24.035-18.517c1.271-0.979,2.656-1.218,4.229-0.946
	c5.922,1.021,11.625,2.702,17.095,5.23c2.156,0.997,2.974,2.188,2.267,4.643c-1.693,5.875-3.11,11.829-4.722,17.729
	c-0.438,1.607-1.012,3.149-3.375,2.629c-12.474-2.749-25.233-4.328-37.172-9.223C266.832,42.606,266.322,42.134,265.077,41.308z"/>
<path fill="#020202" d="M133.926,175.135l-0.252-0.165l-0.297,0.054c-4.058-22.517-15.011-41.573-29.562-58.811
	c-5.008-5.934-4.874-5.707,0.789-10.742c3.067-2.728,4.689-2.874,7.088,0.769c5.017,7.619,10.6,14.862,15.747,22.398
	c2.042,2.991,4.101,6.173,5.192,9.576c3.824,11.924,8.767,23.574,9.753,36.27c-1.58,1.752-1.607,4.797-4.524,5.435
	c-2.086,1.178-2.907,0.111-2.971-1.827C134.852,176.963,135.019,175.876,133.926,175.135z"/>
<path fill="#F60B30" d="M852.788,472.398c-0.822-7.082,1.664-14.258-1.338-21.271c-0.551-1.287-0.398-2.504,0.883-2.897
	c2.191-0.674,4.586-1.371,6.654,0.276c1.361,1.084,1.039,2.358-0.373,3.249c-1.771,1.115-1.414,2.848-1.424,4.48
	c-0.061,9.66-0.104,19.32-0.172,28.979c-0.012,1.449,0.475,3.275-1.332,3.923c-1.938,0.692-2.93-0.724-3.9-2.24
	c-5.547-8.642-11.178-17.229-17.271-26.594c0,8.332-0.01,15.938,0.01,23.545c0.002,1.066,1.105,1.092,1.686,1.617
	c1.043,0.945,1.18,2.409,0.109,2.991c-2.266,1.231-5.111,1.401-7.242,0.294c-2.357-1.227-0.504-2.848,0.555-4.361
	c0.562-0.805,0.252-2.248,0.26-3.404c0.047-7.83,0.092-15.66,0.086-23.49c-0.002-1.657,0.191-3.498-0.441-4.926
	c-0.783-1.754-3.029-3.812-0.334-4.854c2.715-1.048,6.268-1.531,8.344,2.09c3.471,6.053,6.986,12.08,10.541,18.082
	c0.994,1.682,2.193,3.242,3.301,4.858C851.852,472.631,852.319,472.514,852.788,472.398z"/>
<path fill="#F70B30" d="M972.852,464.893c3.168-3.326,6.344-6.646,9.5-9.985c0.447-0.476,1.209-1.113,1.135-1.56
	c-1.102-6.533,3.791-3.949,6.631-4.363c0.992-0.146,2.107,0.121,2.289,1.377c0.146,1.021-0.219,1.947-1.221,2.506
	c-5.773,3.212-8.855,9.232-13.838,13.27c-1.299,1.051-1.545,2.102-0.188,3.25c6.066,5.137,9.771,12.551,16.455,17.076
	c0.924,0.626,1.566,1.18,1.209,2.367c-0.322,1.068-1.029,1.755-2.141,1.749c-2.656-0.015-5.316-0.06-7.969-0.231
	c-1.08-0.07-1.732-0.851-1.836-2.008c-0.605-6.881-7.041-9.294-10.547-14.074c-0.537,4.461-2.803,8.739,0.299,12.946
	c1.068,1.449,0.193,2.481-1.357,2.935c-2.465,0.723-4.986,0.646-7.389-0.078c-1.592-0.479-2.811-1.983-1-3.278
	c2.254-1.61,1.836-3.709,1.883-5.778c0.18-7.978,0.303-15.957,0.41-23.937c0.018-1.155-0.057-2.33-0.258-3.468
	c-0.262-1.484-3.65-3.062-0.795-4.252c2.77-1.154,6.232-1.032,9.266,0.172c0.801,0.318,0.736,1.547,0.162,2.175
	c-3.576,3.915-1.047,8.493-2.021,12.677C971.971,464.548,972.411,464.721,972.852,464.893z"/>
<path fill="#010101" d="M263.557,38.906c0-10.343,0.021-20.26-0.018-30.177c-0.008-1.989,1.668-2.059,2.747-2.26
	c6.511-1.216,13.066-2.2,19.594-3.328c1.971-0.341,2.161,0.68,2.141,2.229c-0.057,4.328-0.076,8.658,0.007,12.986
	c0.028,1.489-0.502,2.45-1.67,3.324C278.795,27.348,271.272,33.068,263.557,38.906z"/>
<path fill="#020202" d="M179.255,119.187c8.462,6.872,18.451,10.822,27.464,17.354c-12.995,3.1-25.447,5.977-38.241,6.982
	c-3.253,0.256-7.757,1.241-9.253-1.506c-1.427-2.621,3.026-4.412,4.868-6.52C169.003,129.878,174.238,124.542,179.255,119.187z"/>
<path fill="#F60C30" d="M890.446,473.16c-6.594,0.023-11.689,6.191-10.949,12.777c0.18,1.598,0.781,3.168-1.465,3.301
	c-2.232,0.132-4.688,1.037-6.619-0.87c-0.32-0.316-0.326-1.573-0.023-1.808c6.383-4.938,6.859-12.961,10.127-19.496
	c2.436-4.875,3.992-10.191,5.912-15.321c1.225-3.269,6.166-5.011,8.965-3.067c0.488,0.34,1.143,1.15,1.029,1.54
	c-1.805,6.15,2.133,11.085,3.514,16.522c1.305,5.133,3.234,10.104,4.916,15.14c0.312,0.938,0.74,1.841,1.125,2.756
	c0.607,1.443,4.143,1.882,2.004,4.116c-2.178,2.273-5.381,1.27-8.104,0.844c-2.291-0.355-2.121-1.988-1.926-4.162
	c0.361-3.996-1.555-7.781-3.15-11.336C894.842,471.962,891.838,473.766,890.446,473.16z"/>
<path fill="#F50D32" d="M797.28,447.04c3.277-0.472,6.123,1.718,9.59,1.299c1.885-0.228,1.518,2.905,1.51,4.614
	c-0.008,1.713,0.629,3.956-1.35,4.902c-1.773,0.85-2.424-0.564-3.035-2.188c-1.426-3.8-4.434-5.196-8.324-4.334
	c-2.615,0.579-4.385,2.334-5.07,4.96c-0.727,2.773,1.516,3.885,3.279,4.891c2.719,1.553,5.711,2.609,8.506,4.043
	c7.061,3.621,9.432,9.738,6.502,16.5c-2.668,6.155-9.93,8.95-16.803,6.455c-0.766-0.277-1.633-1.041-2.244-0.865
	c-6.391,1.854-4.244-3.108-4.637-5.85c-0.195-1.355,0.535-2.715,1.99-3.115c1.797-0.494,1.979,1.078,2.637,2.236
	c2.248,3.959,7.305,5.159,11.182,2.811c4.215-2.556,3.852-7.562-0.785-10.429c-3.232-1.997-7.08-2.752-10.092-5.282
	c-4.387-3.688-6.246-8.179-4.834-12.604C786.815,450.331,791.741,447.023,797.28,447.04z"/>
<path fill="#F60C31" d="M1030.151,478.646c-0.143,9.025-7.484,14.531-16.428,12.246c-1.848-0.473-3.365-1.627-5.623-0.938
	c-1.861,0.567-2.484-1.381-2.223-2.981c0.348-2.115-1.348-4.922,1.6-6.205c2.191-0.957,2.094,1.238,2.828,2.418
	c2.258,3.621,5.656,4.422,9.549,3.248c3.131-0.944,4.395-3.197,4.238-6.479c-0.135-2.843-2.09-3.957-4.168-5.083
	c-3.207-1.736-6.801-2.686-9.713-5.04c-4.617-3.735-6.307-9.714-3.869-14.194c2.701-4.965,9.842-7.76,15.053-5.871
	c0.932,0.338,1.879,1.194,2.723,1.084c1.557-0.207,3.334-1.569,4.254,0.611c0.988,2.344,0.691,4.91,0.035,7.352
	c-0.215,0.799-0.838,1.461-1.818,1.416c-1.514-0.071-1.6-1.391-2.145-2.396c-2.494-4.613-6.811-5.812-10.752-3.075
	c-3.688,2.562-3.799,5.89,0.008,8.31c2.504,1.591,5.373,2.596,8.037,3.941C1026.53,469.432,1030.682,472.357,1030.151,478.646z"/>
<path fill="#030303" d="M158.829,134.51c0.772-16.989,2.294-34.088,6.594-51.759c3.067,6.456,4.668,12.507,6.572,18.442
	c0.556,1.732,0.648,3.73,1.586,5.202c4.912,7.703,2.71,13.536-4.139,18.685C165.752,127.854,162.501,131.214,158.829,134.51z"/>
<path fill="#F40D34" d="M941.522,489.932c-10.775,0.723-18.26-3.6-21.213-12.178c-3.23-9.382,0.379-20.87,8.143-26.345
	c5.785-4.079,12.217-2.142,18.363-1.882c2.062,0.087,1.02,3.096,1.186,4.805c0.131,1.375-0.021,2.842-1.646,3.2
	c-1.65,0.364-1.908-1.044-2.67-2.198c-3.043-4.611-12.547-2.48-15.205,3.62c-2.738,6.28-3.297,12.88-0.646,19.433
	c1.77,4.377,6.797,7.584,11.475,7.394c1.664-0.067,3.398-0.205,4.219-2.041c0.648-1.455,1.436-2.956,3.262-1.911
	c1.73,0.99,1.246,2.929,1.121,4.561c-0.131,1.694-0.387,3.525-2.582,3.623C944.04,490.068,942.737,489.402,941.522,489.932z"/>
<path fill="#020202" d="M670.938,194.546c9.238,0.317,9.238,0.317,10.039,9.215c1.072,11.974,1.02,12.124-11.102,10.704
	c-2.57-0.301-6.836,1.262-7.434-2.165c-0.893-5.093-2.807-10.63-0.281-15.649C664.026,192.946,668.196,195.107,670.938,194.546z"/>
<path fill="#020202" d="M805.215,276.206c-10.676,0.156-10.688,0.154-10.209-10.801c0.078-1.821,0.34-3.635,0.467-5.454
	c0.143-2.043,1.24-2.847,3.24-2.94c3.809-0.179,7.604-0.646,11.412-0.756c4.223-0.122,5.957,2.02,5.381,6.23
	c-0.203,1.479-0.396,2.961-0.514,4.447C814.276,276.073,814.284,276.073,805.215,276.206z"/>
<path fill="#020202" d="M964.688,245.194c-9.791-0.198-9.99-0.452-9.689-12.391c0.148-5.931,2.176-7.15,11.516-6.928
	c5.213,0.125,7.535,2.153,7.449,6.505C973.737,243.616,972.481,245.352,964.688,245.194z"/>
<path fill="#040404" d="M294.561,18.764c7.394-5.285,13.988-10,21.398-15.298c-0.768,7.414-0.646,14.046-2.316,20.783
	C307.623,21.758,301.55,20.133,294.561,18.764z"/>
<path fill="#030303" d="M292.991,16.595c0-2.243-0.018-3.561,0.003-4.878c0.154-9.682,0.143-9.897,9.749-10.539
	c4.169-0.279,8.278-1.864,13.249-0.834C308.202,5.849,300.91,11,292.991,16.595z"/>
<path fill="#1D1D1D" d="M1189.374,301.615c2.27-1.519,0.809-6.371,4.775-5.414c2.258,0.544,1.273,3.664,1.535,5.603
	c0.205,1.536,1.449,4.363-0.82,4.551c-2.332,0.193-0.82-3.074-2.084-4.72c-1.742,1.222-0.674,5.062-3.473,4.729
	c-2.242-0.266-1.611-3.252-3.039-4.973c-0.203,1.108-0.387,2.088-0.562,3.067c-0.178,0.983-0.332,2.205-1.678,1.883
	c-1.375-0.33-0.74-1.59-0.676-2.5c0.115-1.646,0.199-3.301,0.461-4.926c0.18-1.122-0.602-2.836,1.631-2.94
	c1.672-0.078,2.342,0.707,2.666,2.236C1188.348,299.33,1188.901,300.379,1189.374,301.615z"/>
<path fill="#262626" d="M1183.506,297.069c-4.91,0.445-3.822,3.744-3.859,6.488c-0.016,1.104,0.379,2.743-1.146,2.854
	c-2.219,0.161-1.062-1.855-1.436-2.916c-0.674-1.92,1.887-5.342-2.555-5.578c-0.176-0.01-0.535-1.104-0.42-1.193
	c0.455-0.357,1.078-0.74,1.617-0.709C1178.131,296.151,1180.622,295.446,1183.506,297.069z"/>
<path fill="#FEFEFE" d="M171.843,345.288c0.057-9.396,0.113-18.795,0.169-28.191c1.138-25.125,1.936-50.261-2.244-75.2
	c-1.261-7.523-3.411-14.903-4.494-22.486c-1.12-7.85,0.306-13.947,8.262-18.269c11.679-6.345,23.032-13.259,35.452-18.146
	c15.521-6.106,31.445-4.316,47.317-2.243c25.583,3.34,40.287,20.369,50.488,41.966c4.32,9.146,4.534,19.691,5.676,29.776
	c2.151,19.013,4.486,37.977,4.014,57.213c-0.656,26.755-8.303,51.383-21.113,74.616c-5.212,9.452-10.264,19.005-15.822,28.251
	c-9.114,15.159-21.858,27.257-35.599,37.916c-11.565,8.972-25.512,9.673-39.56,5.765c-1.433-0.398-2.875-0.766-4.312-1.146
	c-9.467-4.288-13.978-12.329-17.819-21.571c-9.408-22.634-12.715-45.969-10.569-70.278
	C172.213,357.31,171.816,351.28,171.843,345.288z"/>
<path fill="#591016" d="M133.926,175.135c1.346,0.031,2.227,0.624,1.823,2.051c-0.564,1.992,0.406,2.598,2.111,2.732
	C133.979,181.429,133.926,181.365,133.926,175.135z"/>
<path d="M1232.075,345.379c-1.652-4.19-4.6-7.392-9.246-8.315c-18.646-3.705-36.939-3.479-54.436,5.158
	c-1.328,0.656-2.777,1.125-4.219,1.493c-1.967,0.502-3.283-0.039-3.176-2.421c0.271-5.885-1.637-11.508-2.059-17.332
	c-1.686-23.277-1.297-46.605-1.938-69.908c-0.391-14.304-0.467-28.629-3.02-42.781c-0.406-2.254-0.229-4.884-3.748-4.692
	c-3.49,0.19-6.99,0.218-10.48,0.398c-4.342,0.224-6.096,2.446-5.75,6.87c1.471,18.936,1.65,37.921,2.039,56.901
	c0.09,4.433-0.631,8.651-2.385,12.636c-4.035,9.162-8.844,17.906-15.135,25.739c-3.957,4.925-7.869,9.905-13.041,13.708
	c-2.641,1.941-4.455,1.854-5.699-1.465c-1.793-4.778-2.729-9.676-1.336-14.651c1.092-3.911,1.395-7.817,1.422-11.838
	c0.129-17.985-0.441-35.978,0.838-53.957c0.424-5.934,0.676-11.977-0.594-17.931c-0.795-3.738-2.928-5.656-6.689-4.996
	c-5.389,0.948-10.744,2.116-16.055,3.429c-1.941,0.479-3.453,1.97-4.578,3.693c-1.885,2.889-0.861,6.321,2.465,6.36
	c5.941,0.07,5.656,3.276,5.201,7.545c-2.719,25.528-3.287,51.139-2.244,76.775c0.273,6.71,2.002,13.16,6.529,18.479
	c1.51,1.773,3.049,3.606,5.637,3.736c7.361,0.367,14.57,0.713,20.59-5.105c3.248-3.139,6.34-6.336,9.107-9.881
	c6.541-8.377,11.91-17.512,17.393-27.614c2.289,6.971,0.898,13.257,2.139,19.329c2.162,10.611,3.354,21.361,3.838,32.188
	c0.115,2.57,0.287,5.598-2.406,6.562c-5.285,1.891-9.52,5.383-14.135,8.277c-13.789,8.645-27.727,17.014-39.873,28.09
	c-23.564,21.487-35.611,47.591-33.008,79.739c1.053,12.986,8.492,22.202,18.555,29.859c6.389,4.861,13.045,2.223,19.691,1.798
	c0.996-0.063,2.008-0.062,2.986-0.233c28.703-5.041,50.377-18.996,60.305-47.735c2.076-6.011,2.639-12.351,3.447-18.604
	c2.91-22.516,2.373-45.2,2.945-67.823c0.363-14.351-2.146-13.295,13.217-19.563c14.406-5.878,28.977-5.14,42.445,3.733
	c2.877,1.896,4.633,4.47,5.557,7.931c1.41,5.292-0.447,9.817-2.463,14.392c-0.549,1.246-1.467,2.412,0.092,3.461
	c1.557,1.049,2.742,0.42,3.799-0.983c1.799-2.396,3.475-4.946,5.609-7.011C1237.782,361.488,1235.247,353.425,1232.075,345.379z
	 M1143.448,397.039c-1.08,14.729-0.02,29.695-4.455,44.062c-3.42,11.08-6.301,22.358-13.115,32.121
	c-7.812,11.194-18.08,17.362-31.951,16.987c-1.828-0.05-3.666,0.043-5.49,0.177c-12.414,0.908-21.969-4.734-24.656-16.98
	c-4.52-20.582-2.312-40.639,11.162-57.743c11.15-14.154,24.551-26.249,39.055-36.96c7.754-5.726,16.268-10.313,24.939-14.558
	c3.289-1.609,4.594-1.174,4.709,2.938C1143.922,377.079,1144.188,387.056,1143.448,397.039z"/>
<path fill="#F7EEEF" d="M890.502,456.768c0.822,2.32,1.283,3.537,1.688,4.773c2.656,8.141,2.65,8.143-6.443,7.169
	C887.221,465.006,888.649,461.418,890.502,456.768z"/>
<path fill="#020202" d="M195.688,296.209c7.64,7.706,14.108,14.741,17.519,24.004c2.175,5.906,0.996,9.487-3.45,11.246
	c-4.953,1.958-8.887,0.044-11.173-5.896C195.109,316.537,195.145,307.103,195.688,296.209z"/>
</svg>
