<?xml version="1.0" encoding="utf-8"?>
<!-- Generator: Adobe Illustrator 16.0.4, SVG Export Plug-In . SVG Version: 6.00 Build 0)  -->
<!DOCTYPE svg PUBLIC "-//W3C//DTD SVG 1.1//EN" "http://www.w3.org/Graphics/SVG/1.1/DTD/svg11.dtd">
<svg version="1.1" id="Layer_1" xmlns="http://www.w3.org/2000/svg" xmlns:xlink="http://www.w3.org/1999/xlink" x="0px" y="0px"
	 width="12443.931px" height="5243.932px" viewBox="923.931 4536.416 12443.931 5243.932"
	 enable-background="new 923.931 4536.416 12443.931 5243.932" xml:space="preserve">
<g>
	<g>
		<path fill="#0067AB" d="M2014.335,8989.596c-108.208-99.885-220.577-199.77-337.109-287.168
			c-66.59-49.941-224.74-137.341-233.063-233.062c-8.324-99.885,124.855-141.504,145.665-233.064
			c41.618-178.959-145.665-453.642-224.74-603.468c-137.341-266.358-287.168-528.555-420.347-794.913
			c-12.486,104.046-20.81,212.254-20.81,320.462c0,978.034,536.879,1835.376,1335.954,2284.856
			C2226.59,9272.602,2160,9122.773,2014.335,8989.596z"/>
		<path fill="#0067AB" d="M5651.792,8290.404c74.913-70.751,362.081-183.121,295.491-312.139
			c-45.78-91.561-299.652-166.474-387.052-203.931c-120.693-49.942-241.388-91.561-366.243-129.017
			c-70.751-20.81-245.549-37.457-287.168-112.37c-66.589-129.018,91.561-424.509,141.504-528.555
			c95.723-191.445,245.549-324.625,416.185-449.48c62.428-41.618,324.624-153.988,270.521-262.196
			c-24.972-49.942-183.121-87.398-233.064-91.561c-95.723-12.486-199.769,16.647-283.006,58.266
			c-116.531,54.104-370.404,162.312-420.347-58.266c-24.971-112.37,95.723-233.063,149.827-312.139
			c199.769-278.844-187.283-599.307-391.215-744.971c-170.635-120.694-295.49-303.815-312.139-507.746
			c-224.739-66.59-457.803-99.885-699.19-99.885c-382.89,0-744.971,83.237-1073.757,228.902
			c208.092,87.398,495.26,66.59,495.26,332.947c0,178.96,91.561,553.526-45.78,682.544
			c-58.266,54.104-187.283,79.075-262.196,104.046c-199.769,66.59-403.699,124.855-590.982,220.578
			c-224.74,116.532-399.538,266.358-399.538,528.555c0,41.619,16.647,120.694-16.647,149.827
			c-37.456,29.133-178.959-33.295-233.063,0c-112.37,70.751-20.81,391.214,0,478.612c49.942,187.283,145.665,453.642,278.844,607.63
			c87.399,104.046,262.197,112.37,387.053,141.503c212.254,45.78,428.67,104.047,640.925,162.312
			c233.063,62.428,482.774,108.208,699.19,224.74c124.855,70.751,166.474,116.531,208.093,233.062
			c45.78,129.018,129.018,220.578,54.104,370.406c-58.266,112.369-174.797,187.281-274.682,258.033
			c-187.283,129.018-337.109,287.168-486.936,445.318c203.93,49.941,412.022,74.914,628.438,74.914
			c715.839,0,1360.925-287.168,1835.376-749.133C5281.387,8810.637,5518.613,8415.26,5651.792,8290.404z"/>
		<path fill="#0090D0" d="M3408.555,9255.953c99.885-70.75,216.416-141.502,274.682-258.035
			c74.914-149.826-8.323-241.387-54.104-370.404c-41.619-116.531-79.075-162.312-208.093-233.062
			c-212.254-120.693-466.127-162.312-699.19-224.74c-212.254-58.266-428.671-112.37-640.925-162.312
			c-124.855-29.133-295.491-37.457-387.052-141.503c-129.018-149.826-224.74-420.347-278.845-607.63
			c-24.971-87.398-116.531-407.861,0-478.612c58.267-37.457,195.607,29.133,233.063,0c37.457-24.972,16.647-108.208,16.647-149.827
			c0-266.358,174.798-412.022,399.538-528.555c187.283-95.723,391.214-153.988,590.982-220.578
			c74.913-24.971,203.931-45.779,262.196-104.046c137.341-129.018,45.78-499.422,45.78-682.543
			c0-266.358-287.168-245.55-495.26-332.948c-16.647,8.324-29.133,12.485-45.78,20.81c-8.324,4.161-16.647,8.323-24.972,12.485
			c-33.295,16.647-62.428,33.295-95.723,49.942c-8.323,4.161-16.646,8.323-24.971,16.647c-24.971,12.485-54.104,29.133-79.075,45.78
			c-8.323,4.161-12.485,8.323-20.81,12.485c-29.133,16.647-62.428,37.457-91.561,58.266c-8.323,4.162-16.647,12.486-24.971,16.647
			c-24.971,16.647-49.942,33.295-74.913,49.942c-8.324,4.162-12.485,8.324-20.81,12.485c-29.133,20.81-54.104,41.618-83.236,66.59
			c-8.324,8.323-16.648,12.485-24.972,20.81c-24.971,20.809-45.78,37.456-66.589,58.266c-4.162,4.162-12.486,8.324-16.648,16.647
			c-24.971,24.971-49.941,49.942-74.913,74.913c-8.323,8.324-16.647,16.647-24.971,24.971c-20.81,20.81-41.618,41.619-62.428,66.59
			c-4.162,4.162-8.324,12.485-16.647,16.647c-24.971,24.972-45.78,54.104-70.752,79.075c-8.323,8.324-16.647,16.647-20.809,24.971
			c-20.81,24.972-37.457,45.781-54.104,70.752c-4.161,4.162-8.323,12.485-12.485,16.647c-20.81,29.133-41.618,58.266-62.428,87.398
			c-8.324,8.324-12.485,20.81-20.81,29.134c-16.647,24.971-33.294,49.941-49.942,79.074c-4.161,8.324-8.323,12.486-12.484,20.81
			c-16.648,29.134-33.295,58.267-49.943,87.399c-4.161,12.485-12.484,20.809-16.646,33.295
			c-16.647,29.133-29.133,58.266-45.781,87.398c-4.161,8.323-8.323,16.647-12.484,24.971
			c-12.486,29.133-24.972,58.266-37.457,87.398c-4.162,12.486-8.324,20.81-12.486,33.295
			c-12.484,29.133-24.971,62.428-37.456,95.723c-4.162,8.324-4.162,16.648-8.323,24.972c-8.324,29.133-20.81,58.266-29.133,87.398
			c-4.162,12.486-8.324,24.972-12.486,37.457c-8.324,33.295-20.809,66.59-29.133,104.046c0,8.324-4.162,16.647-4.162,24.972
			c-8.323,29.133-12.485,58.266-20.809,87.398c-4.162,12.485-4.162,24.971-8.324,37.457c-8.324,33.295-12.485,70.751-20.809,108.208
			c0,8.323-4.162,16.647-4.162,24.971c-4.162,20.81-4.162,37.457-8.324,58.266c133.18,270.521,283.006,528.555,420.347,794.914
			c79.075,149.826,262.196,424.508,224.74,603.468c-20.81,91.561-153.988,133.179-145.665,233.063
			c8.324,95.723,166.475,183.121,233.063,233.062c116.532,87.4,228.902,187.285,337.11,287.168
			c145.664,129.018,208.092,283.006,245.549,449.48c8.324,4.162,12.485,8.324,20.81,12.484
			c12.485,8.324,24.971,12.486,33.294,20.811c24.972,12.486,49.943,24.971,74.914,37.455c8.323,4.164,16.647,8.324,24.971,12.486
			c33.295,16.646,62.428,29.133,95.723,41.619c12.485,4.162,24.971,8.324,37.457,16.646c24.971,8.324,49.941,20.811,74.913,29.133
			c12.485,4.162,20.81,8.324,33.294,12.486c33.295,12.484,66.59,24.971,99.885,33.295c12.486,4.162,24.971,8.322,37.457,12.486
			c24.971,8.322,49.941,12.484,74.913,20.809c12.485,4.162,24.972,8.324,37.457,8.324c4.161,0,8.323,0,12.485,4.16
			C3071.445,9543.121,3221.271,9384.971,3408.555,9255.953z"/>
		<path fill="#0090D0" d="M5476.994,8931.33c20.81-20.811,37.457-41.619,58.266-66.59c8.324-8.324,16.647-20.811,24.972-29.133
			c20.81-20.811,37.456-45.781,54.104-70.752c8.323-8.324,16.646-20.809,24.971-29.133c16.647-24.971,33.295-49.941,54.104-70.75
			c8.323-8.324,16.647-20.811,20.81-29.133c16.646-24.973,33.295-49.943,49.941-74.914c8.324-12.486,12.486-20.81,20.81-33.295
			c16.647-24.971,29.133-49.942,45.78-79.076c4.162-12.484,12.486-20.809,20.81-33.295c12.485-24.971,29.133-54.104,41.618-79.074
			c4.162-12.486,12.486-20.81,16.647-33.295c12.485-24.971,24.972-54.104,37.456-83.237c4.162-12.485,12.486-24.972,16.647-37.456
			c12.485-29.133,20.81-54.105,33.295-83.238c4.162-12.485,8.323-24.971,16.647-37.456c8.323-29.133,20.809-54.104,29.133-83.237
			c4.162-12.485,8.323-24.971,12.485-41.618c8.323-29.133,16.647-54.104,24.972-83.237c4.162-12.485,8.323-29.133,12.485-41.618
			c8.323-29.133,12.485-54.104,20.81-83.237c4.162-16.647,8.323-29.133,8.323-45.78c4.162-29.133,8.323-54.104,16.647-83.237
			c4.162-16.646,4.162-29.133,8.323-45.779c4.162-29.133,8.323-58.267,12.485-87.399c0-16.647,4.162-29.133,4.162-45.78
			c4.162-29.133,4.162-62.428,8.324-91.561c0-12.485,4.162-29.133,4.162-41.618c4.162-45.78,4.162-91.561,4.162-137.341
			c0-41.619,0-83.237-4.162-124.855c0-12.486,0-24.972-4.162-41.619c0-29.133-4.162-58.266-8.324-83.236
			c0-16.648-4.162-29.133-4.162-45.781c-4.162-24.971-8.323-54.104-8.323-79.075c-4.162-16.647-4.162-29.133-8.323-45.78
			c-4.162-29.133-8.324-54.104-12.486-79.075c-4.162-12.485-4.162-24.971-8.323-37.456c-8.323-37.457-16.647-74.914-24.972-112.37
			v-4.162c-8.323-37.456-20.809-74.913-33.295-112.369c-4.162-12.486-8.323-24.972-12.485-37.457
			c-8.323-24.972-16.647-49.942-24.972-74.913c-4.162-16.648-12.485-29.133-16.646-41.619c-8.324-24.971-16.647-45.78-24.972-66.59
			c-4.162-12.485-12.485-29.133-16.647-41.618c-8.323-24.971-20.809-45.78-29.133-70.751c-4.162-12.486-12.485-24.971-16.646-37.457
			c-16.647-29.133-29.133-58.266-45.781-87.398c-4.162-8.324-8.323-16.647-12.485-24.971
			c-16.647-29.133-33.295-62.428-49.942-91.561c-8.323-12.486-16.646-24.972-24.971-37.457
			c-12.486-20.81-24.972-41.619-37.457-62.428c-8.323-12.486-20.809-29.133-29.133-41.619
			c-12.485-16.647-24.971-37.456-37.456-54.104c-8.323-12.485-20.81-29.133-29.133-41.619
			c-12.485-16.646-29.133-37.456-41.618-54.104c-8.324-12.485-20.81-24.971-29.133-37.457
			c-16.647-20.809-37.457-41.618-54.104-62.428c-12.485-12.485-24.972-29.133-37.456-41.618
			c-20.81-20.81-37.457-41.618-58.266-62.428c-12.486-12.485-24.972-24.972-37.457-37.457c-16.646-16.647-29.133-29.133-45.78-45.78
			c-12.485-12.485-29.133-24.971-41.618-37.457c-16.648-12.484-29.133-24.971-45.781-41.618
			c-12.485-12.485-29.133-24.971-41.618-37.456c-16.647-12.486-33.295-24.972-49.942-37.457
			c-16.646-12.485-29.133-20.81-45.779-33.295c-16.648-12.485-37.457-24.971-54.104-37.457
			c-24.972-16.646-45.78-33.295-70.751-49.941c-20.811-12.486-37.457-24.972-58.267-37.457
			c-16.647-8.324-33.295-20.81-49.942-29.133c-16.646-8.324-33.295-20.81-49.941-29.133c-16.648-8.324-33.295-20.81-54.104-29.133
			c-16.647-8.324-33.295-16.648-49.942-24.972c-16.646-8.323-37.457-16.647-54.104-24.971
			c-16.648-8.324-33.295-16.647-49.942-24.972c-16.647-8.323-37.456-16.646-54.104-24.971
			c-16.646-8.324-37.457-16.647-54.104-20.809c-33.295-12.486-66.59-24.972-95.723-37.457c-20.81-8.324-37.457-12.486-58.266-20.81
			c-20.811-4.162-37.457-12.485-58.267-16.647c-12.485-4.162-24.972-8.324-37.456-12.485
			c20.809,208.093,141.502,387.052,312.139,507.745c208.092,145.665,590.982,470.289,391.213,744.972
			c-58.266,79.075-174.797,199.769-149.826,312.139c49.941,220.578,303.815,112.37,420.347,58.266
			c87.399-41.618,187.283-70.751,283.006-58.266c49.942,8.323,208.093,41.618,233.063,91.561
			c54.104,112.37-208.092,220.578-270.52,262.196c-170.637,120.694-324.625,258.035-416.186,449.48
			c-54.104,104.046-212.254,403.699-141.503,528.555c41.618,74.913,216.416,91.561,287.168,112.369
			c120.693,37.457,245.549,79.076,366.243,129.018c87.398,37.457,337.109,112.37,387.052,203.931
			c66.59,133.179-220.578,241.388-295.491,312.14c-133.18,124.855-370.405,520.23-266.358,736.646c4.162,0,4.162-4.162,8.323-4.162
			c20.81-20.809,37.457-41.619,58.266-62.428C5460.347,8952.139,5468.67,8939.652,5476.994,8931.33z"/>
	</g>
	<polygon fill="#FFFFFF" points="3054.798,9197.688 3054.798,6030.521 2671.907,6026.358 2676.069,5514.451 3167.168,5073.295 
		4078.612,5073.295 4078.612,9197.688 	"/>
	<polygon fill="#FFFFFF" points="5368.786,6446.705 5585.202,6446.705 4665.434,7703.584 4453.18,7703.584 	"/>
	<path fill="#FFFFFF" d="M4332.485,6746.358c0,162.312,133.179,295.491,295.491,295.491s295.491-133.179,295.491-295.491
		s-133.179-295.491-295.491-295.491C4465.664,6455.029,4332.485,6584.046,4332.485,6746.358z M4498.959,6746.358
		c0-70.751,58.266-129.018,129.018-129.018s129.018,58.267,129.018,129.018s-58.266,129.018-129.018,129.018
		C4557.225,6879.538,4498.959,6821.271,4498.959,6746.358z"/>
	<path fill="#FFFFFF" d="M5102.428,7408.093c0,162.312,133.179,295.491,295.491,295.491c162.312,0,295.491-133.18,295.491-295.491
		c0-162.312-133.179-295.491-295.491-295.491C5235.607,7112.602,5102.428,7245.78,5102.428,7408.093z M5264.74,7408.093
		c0-70.751,58.266-129.018,129.018-129.018c70.751,0,129.018,58.267,129.018,129.018s-58.266,129.017-129.018,129.017
		C5327.168,7537.109,5264.74,7478.844,5264.74,7408.093z"/>
</g>
<g>
	<polygon fill="#0090D0" points="6629.826,6055.491 7487.167,6055.491 7487.167,6313.526 6929.479,6313.526 6929.479,6496.647 
		7433.063,6496.647 7433.063,6742.196 6929.479,6742.196 6929.479,7120.925 6629.826,7120.925 	"/>
	<path fill="#0090D0" d="M7591.213,6592.37L7591.213,6592.37c0-307.977,245.549-557.688,574.336-557.688
		c328.786,0,574.334,245.55,574.334,549.364v4.162c0,307.978-245.548,553.526-574.334,553.526
		C7832.601,7141.734,7591.213,6896.186,7591.213,6592.37z M8436.069,6592.37L8436.069,6592.37
		c0-158.15-112.37-291.329-274.683-291.329s-270.521,129.017-270.521,283.006v4.161c0,153.988,112.37,287.168,274.683,287.168
		S8436.069,6746.358,8436.069,6592.37z"/>
	<path fill="#0090D0" d="M8902.195,6055.491h503.586c162.311,0,274.682,41.618,345.434,116.532
		c62.426,62.428,95.723,141.503,95.723,249.711v4.162c0,162.312-87.4,270.52-220.578,328.786l253.871,370.404h-341.27
		l-216.418-324.624l0,0h-124.855v324.624h-295.492V6055.491z M9389.133,6567.399c99.883,0,158.15-49.942,158.15-124.855v-4.162
		c0-83.237-62.428-124.855-158.15-124.855h-191.445v258.034h191.445V6567.399z"/>
	<polygon fill="#0090D0" points="10550.289,6313.526 10229.826,6313.526 10229.826,6055.491 11166.242,6055.491 11166.242,6313.526 
		10845.781,6313.526 10845.781,7120.925 10550.289,7120.925 	"/>
	<polygon fill="#0090D0" points="11303.584,6055.491 11599.074,6055.491 11599.074,6455.029 11977.803,6455.029 11977.803,6055.491 
		12273.293,6055.491 12273.293,7120.925 11977.803,7120.925 11977.803,6717.226 11599.074,6717.226 11599.074,7120.925 
		11303.584,7120.925 	"/>
	<polygon fill="#0090D0" points="12468.902,6055.491 13326.242,6055.491 13326.242,6305.202 12760.23,6305.202 12760.23,6467.515 
		13272.137,6467.515 13272.137,6700.578 12760.23,6700.578 12760.23,6871.214 13334.566,6871.214 13334.566,7120.925 
		12468.902,7120.925 	"/>
	<path fill="#0067AB" d="M6625.664,7333.18h491.099c291.329,0,478.612,149.826,478.612,403.699v4.161
		c0,270.521-208.092,412.023-495.26,412.023h-158.15v328.786h-316.301V7333.18z M7091.791,7903.353
		c112.37,0,183.121-58.266,183.121-149.826v-4.162c0-99.884-70.751-149.826-183.121-149.826h-149.826v303.815L7091.791,7903.353
		L7091.791,7903.353z"/>
	<polygon fill="#0067AB" points="7728.555,7333.18 8044.855,7333.18 8044.855,8203.006 8602.543,8203.006 8602.543,8481.85 
		7728.555,8481.85 	"/>
	<path fill="#0067AB" d="M9135.26,7324.855h307.977l486.936,1156.994h-341.27l-83.238-203.93h-441.156l-83.238,203.93h-332.945
		L9135.26,7324.855z M9414.104,8028.208l-129.018-324.624l-129.018,324.624H9414.104z"/>
	<polygon fill="#0067AB" points="10042.543,7333.18 10338.035,7333.18 10812.484,7940.81 10812.484,7333.18 11124.623,7333.18 
		11124.623,8481.85 10845.781,8481.85 10358.844,7853.41 10358.844,8481.85 10042.543,8481.85 	"/>
	<polygon fill="#0067AB" points="11328.555,7333.18 12252.484,7333.18 12252.484,7603.699 11644.855,7603.699 11644.855,7778.497 
		12194.219,7778.497 12194.219,8028.208 11644.855,8028.208 11644.855,8211.33 12260.809,8211.33 12260.809,8481.85 
		11328.555,8481.85 	"/>
	<polygon fill="#0067AB" points="12701.965,7612.023 12360.693,7612.023 12360.693,7333.18 13367.861,7333.18 13367.861,7612.023 
		13022.426,7612.023 13022.426,8481.85 12701.965,8481.85 	"/>
	<path fill="#0067AB" d="M13064.047,8456.879l20.809-24.971c12.484,12.484,29.133,16.646,45.781,16.646
		c12.484,0,16.645-4.162,16.645-8.323l0,0c0-4.161-4.16-8.323-24.969-12.485c-29.135-8.324-54.105-16.648-54.105-45.781l0,0
		c0-24.971,20.809-45.779,54.105-45.779c24.969,0,41.617,8.323,58.266,20.809l-20.811,29.133
		c-12.486-8.323-29.135-12.485-41.619-12.485c-8.324,0-12.484,4.161-12.484,8.323l0,0c0,8.324,4.162,8.324,24.973,12.486
		c33.293,8.323,54.102,16.646,54.102,45.779l0,0c0,29.133-24.971,45.781-58.266,45.781
		C13105.664,8477.688,13080.691,8469.364,13064.047,8456.879z"/>
	<polygon fill="#0067AB" points="13209.711,8332.023 13251.328,8332.023 13284.625,8390.289 13317.918,8332.023 13359.537,8332.023 
		13359.537,8477.688 13322.082,8477.688 13322.082,8394.451 13284.625,8448.555 13284.625,8448.555 13247.168,8394.451 
		13247.168,8477.688 13209.711,8477.688 	"/>
</g>
</svg>
