<?xml version="1.0" encoding="utf-8"?>
<!-- Generator: Adobe Illustrator 16.0.4, SVG Export Plug-In . SVG Version: 6.00 Build 0)  -->
<!DOCTYPE svg PUBLIC "-//W3C//DTD SVG 1.1//EN" "http://www.w3.org/Graphics/SVG/1.1/DTD/svg11.dtd">
<svg version="1.1" id="Layer_1" xmlns="http://www.w3.org/2000/svg" xmlns:xlink="http://www.w3.org/1999/xlink" x="0px" y="0px"
	 width="324px" height="107.225px" viewBox="0 0 324 107.225" enable-background="new 0 0 324 107.225" xml:space="preserve">
<g>
	<path d="M79.368,107.225c-9.748,0-15.565-6.761-15.565-19.181V75.309h10.534v14.622c0,3.301,1.258,5.502,4.402,5.502
		c2.83,0,4.245-2.201,4.245-5.502c0-10.534-2.358-18.867-7.704-31.13C70.721,48.11,63.961,31.602,63.961,20.754
		C63.961,8.648,68.992,0,80.312,0c8.49,0,14.15,6.132,14.15,19.181v13.993H83.927V17.295c0-3.145-1.414-4.717-3.616-4.717
		c-2.358,0-4.088,1.572-4.088,4.717c0,13.835,2.359,18.08,8.176,31.915c5.66,13.364,10.534,26.885,10.534,37.891
		C94.934,103.452,85.657,107.225,79.368,107.225"/>
	<polygon points="121.989,105.967 121.989,61.002 115.543,61.002 115.543,105.967 103.28,105.967 103.28,1.258 115.543,1.258 
		115.543,47.796 121.989,47.796 121.989,1.258 134.095,1.258 134.095,105.967 	"/>
	<polygon points="143.354,105.967 143.354,1.258 168.666,1.258 168.666,13.836 155.459,13.836 155.459,45.752 164.42,45.752 
		164.42,58.33 155.459,58.33 155.459,93.39 168.666,93.39 168.666,105.967 	"/>
	<path d="M193.459,105.967h-16.666V1.259h16.666c6.289,0,13.991,3.144,13.991,16.508v71.692
		C207.45,102.823,199.748,105.967,193.459,105.967 M195.188,18.081c0-2.987-0.943-4.244-2.987-4.244h-3.145v79.709h3.145
		c2.044,0,2.987-1.258,2.987-4.244V18.081z"/>
	<path d="M221.614,49.817h-5.341v-9.005h5.26c1.812,0,2.988,0.798,2.988,2.407v0.108c0,0.757-0.527,1.744-1.664,1.96
		c1.191,0.23,1.73,1.149,1.73,1.934v0.189C224.588,49.019,223.426,49.817,221.614,49.817 M221.426,43.706
		c0-0.46-0.244-0.69-0.785-0.69h-1.149v1.636h1.149c0.541,0,0.785-0.257,0.785-0.703V43.706z M221.426,46.707
		c0-0.474-0.244-0.703-0.785-0.703h-1.149v1.636h1.149c0.541,0,0.785-0.23,0.785-0.69V46.707z"/>
	<polygon points="226.462,49.817 226.462,40.812 229.681,40.812 229.681,47.33 234.142,47.33 234.142,49.817 	"/>
	<path d="M239.981,49.816h-4.464v-9.004h4.464c3.067,0,4.379,1.595,4.379,3.596v1.92C244.36,48.315,243.049,49.816,239.981,49.816
		 M241.102,44.22c0-0.852-0.444-1.231-1.311-1.231h-1.054v4.638h1.054c0.866,0,1.311-0.365,1.311-1.23V44.22z"/>
	<path d="M252.104,49.816c-0.459,0-0.73-0.662-0.73-1.393v-1.23c0-0.405-0.177-0.771-0.73-0.771h-1.284v3.394h-3.218v-9.004h5.287
		c1.811,0,3.041,1.013,3.041,2.406v0.311c0,0.892-0.58,1.676-1.555,1.933c1.096,0.203,1.596,1.001,1.596,1.839v1.014
		c0,0.568,0.148,1.055,0.406,1.46v0.041H252.104z M251.294,43.801c0-0.555-0.271-0.784-0.935-0.784h-1v1.906h1
		c0.663,0,0.935-0.257,0.935-0.784V43.801z"/>
	<path d="M266.857,43.989c-0.365-0.54-1.056-1-1.865-1c-0.974,0-1.582,0.514-1.582,1.311v2.028c0,0.798,0.608,1.312,1.582,1.312
		c0.81,0,1.541-0.473,1.865-1.001l1.946,1.068c-0.485,1.271-2.055,2.326-4.028,2.326c-2.759,0-4.664-1.609-4.664-3.786v-1.865
		c0-2.177,1.905-3.786,4.664-3.786c1.974,0,3.608,1.054,4.11,2.325L266.857,43.989z"/>
	<path d="M274.999,50.033c-2.664,0-4.528-1.515-4.528-3.962v-1.527c0-2.448,1.864-3.948,4.528-3.948c2.651,0,4.517,1.5,4.517,3.948
		v1.527C279.516,48.519,277.65,50.033,274.999,50.033 M276.217,44.192c0-0.879-0.474-1.284-1.218-1.284
		c-0.758,0-1.229,0.405-1.229,1.284v2.231c0,0.879,0.472,1.284,1.229,1.284c0.744,0,1.218-0.405,1.218-1.284V44.192z"/>
	<path d="M285.963,50.033c-2.908,0-4.395-1.528-4.395-3.38v-5.841h3.23v5.692c0,0.703,0.461,1.135,1.285,1.135
		c0.838,0,1.285-0.432,1.285-1.135v-5.692h2.907v5.841C290.276,48.505,288.883,50.033,285.963,50.033"/>
	<polygon points="298.757,49.817 296.188,46.491 295.566,45.68 295.566,49.817 292.632,49.817 292.632,40.812 295.377,40.812 
		297.918,44.193 298.513,44.977 298.513,40.812 301.447,40.812 301.447,49.817 	"/>
	<polygon points="309.276,43.246 309.276,49.817 306.06,49.817 306.06,43.246 303.396,43.246 303.396,40.812 311.94,40.812 
		311.94,43.246 	"/>
	<polygon points="319.935,46.193 319.935,49.816 316.703,49.816 316.703,46.193 313.404,40.812 316.839,40.812 318.487,43.921 
		320.056,40.812 323.327,40.812 	"/>
	<path d="M4.884,60.46c-2.682,2.72-1.435,5.893,2.229,5.893c2.833,0,5.062-2.304,6.95-5.59l11.182-19.53
		c-1.776,0.945-3.967,1.473-6.082,1.473c-1.02,0-3.4-0.151-4.307-0.151c-3.362,0-5.666,2.04-5.666,4.117
		c0,1.209,0.529,2.305,1.889,3.06L9.153,52.15c-2.116-1.133-3.136-3.098-3.136-5.1c0-4.344,3.966-7.517,9.67-7.517
		c0.832,0,3.06,0.038,3.929,0.038c4.193,0,7.706-1.927,7.706-1.927l2.04,3.438h-0.038L17.538,61.518
		C14.214,67.26,10.55,69.45,6.659,69.45c-5.93,0-8.952-6.535-3.89-11.028L4.884,60.46z"/>
	<path d="M6.66,69.647c-2.885,0-5.348-1.577-6.275-4.018c-0.953-2.508-0.11-5.258,2.254-7.355c0.076-0.068,0.192-0.067,0.267,0.005
		l2.115,2.04c0.038,0.036,0.059,0.086,0.06,0.139s-0.019,0.104-0.057,0.141c-1.228,1.246-1.675,2.676-1.195,3.824
		c0.455,1.086,1.682,1.734,3.284,1.734c2.438,0,4.656-1.797,6.78-5.493l10.86-18.968c-1.679,0.772-3.68,1.207-5.59,1.207
		c-0.529,0-1.418-0.04-2.278-0.079c-0.819-0.037-1.593-0.072-2.028-0.072c-3.378,0-5.469,2.035-5.469,3.921
		c0,1.257,0.601,2.228,1.787,2.888c0.051,0.028,0.087,0.076,0.098,0.133c0.011,0.057-0.003,0.115-0.039,0.161l-1.927,2.417
		c-0.06,0.076-0.162,0.096-0.247,0.051c-2.028-1.086-3.239-3.057-3.239-5.273c0-4.47,4.149-7.713,9.867-7.713
		c0.411,0,1.165,0.009,1.927,0.019c0.777,0.009,1.563,0.018,2.002,0.018c4.095,0,7.576-1.883,7.611-1.902
		c0.092-0.051,0.21-0.019,0.264,0.072l2.039,3.437c0.037,0.061,0.037,0.136,0.002,0.198c-0.019,0.034-0.048,0.062-0.083,0.079
		l-11.74,20.359C14.581,67.021,10.966,69.647,6.66,69.647 M2.765,58.69c-2.134,1.969-2.887,4.499-2.013,6.799
		c0.869,2.287,3.188,3.766,5.908,3.766c4.154,0,7.657-2.563,10.709-7.835l11.746-20.369l-1.867-3.146
		c-0.757,0.379-3.954,1.863-7.631,1.863c-0.44,0-1.228-0.01-2.007-0.019c-0.76-0.01-1.512-0.019-1.922-0.019
		c-5.578,0-9.474,3.01-9.474,7.32c0,2.046,1.051,3.804,2.889,4.847l1.681-2.109c-1.188-0.731-1.79-1.778-1.79-3.115
		c0-2.075,2.242-4.314,5.863-4.314c0.444,0,1.222,0.034,2.046,0.072c0.855,0.039,1.74,0.079,2.26,0.079
		c2.075,0,4.258-0.529,5.99-1.451c0.077-0.04,0.172-0.026,0.233,0.037s0.074,0.159,0.03,0.235L14.234,60.86
		c-2.2,3.829-4.529,5.69-7.121,5.69c-1.766,0-3.129-0.738-3.647-1.977c-0.524-1.254-0.098-2.777,1.141-4.108L2.765,58.69z"/>
	<path d="M42.062,57.816c0.529,0.227,1.209,0.831,1.473,1.359c-3.249,3.778-6.988,7.253-10.237,7.253
		c-3.173,0-4.344-2.682-2.682-5.59l5.1-8.878c1.7-2.908-0.982-3.89-7.026,3.702l-5.968,10.389h-3.967l15.676-27.198h3.929
		L32.09,49.77c1.964-2.04,3.777-2.984,5.477-2.984c2.191,0,3.815,2.152,2.115,5.137l-5.666,9.935
		c-0.907,1.548-0.415,2.152,0.453,2.152c1.738,0,4.495-2.605,7.329-5.892L42.062,57.816z"/>
	<path d="M33.299,66.625c-1.478,0-2.618-0.562-3.211-1.584c-0.672-1.157-0.542-2.726,0.357-4.3l5.101-8.879
		c0.508-0.869,0.543-1.433,0.406-1.671c-0.072-0.127-0.205-0.189-0.406-0.189c-1.014,0-3.308,1.52-6.702,5.783l-5.952,10.364
		c-0.035,0.061-0.1,0.099-0.17,0.099h-3.967c-0.07,0-0.135-0.038-0.17-0.099c-0.035-0.06-0.035-0.135,0-0.196l15.676-27.198
		c0.035-0.061,0.1-0.098,0.171-0.098h3.928c0.071,0,0.135,0.037,0.171,0.098c0.035,0.06,0.035,0.135,0,0.197l-5.588,9.728
		c1.601-1.405,3.123-2.091,4.624-2.091c1.122,0,2.102,0.534,2.622,1.428c0.633,1.09,0.514,2.512-0.336,4.004l-5.666,9.935
		c-0.421,0.72-0.558,1.279-0.386,1.58c0.132,0.23,0.436,0.278,0.669,0.278c1.432,0,3.848-1.96,7.179-5.824l0.265-0.303
		c0.056-0.065,0.146-0.086,0.226-0.051c0.593,0.253,1.298,0.904,1.571,1.452c0.036,0.069,0.025,0.155-0.027,0.216
		C39.448,64.23,36.051,66.625,33.299,66.625 M35.545,49.609c0.435,0,0.646,0.21,0.747,0.387c0.256,0.444,0.111,1.177-0.407,2.064
		l-5.099,8.877c-0.828,1.448-0.959,2.873-0.359,3.907c0.52,0.894,1.539,1.388,2.871,1.388c2.611,0,5.882-2.317,9.998-7.081
		c-0.246-0.405-0.742-0.863-1.185-1.093l-0.166,0.188c-3.457,4.011-5.903,5.96-7.476,5.96c-0.482,0-0.832-0.164-1.01-0.476
		c-0.253-0.44-0.122-1.104,0.386-1.972l5.665-9.935c0.778-1.364,0.897-2.646,0.337-3.61c-0.448-0.772-1.301-1.232-2.281-1.232
		c-1.672,0-3.468,0.984-5.335,2.923c-0.07,0.073-0.181,0.081-0.26,0.021c-0.08-0.059-0.102-0.169-0.053-0.255L38.02,39.05h-3.474
		l-15.45,26.804h3.512l5.911-10.29C31.493,51.826,34.113,49.609,35.545,49.609"/>
	<path d="M45.385,58.647l-0.377,0.681c-1.813,3.173-0.378,4.684,2.04,4.684c2.757,0,6.384-2.606,9.217-5.893l0.264-0.303
		c0.529,0.227,1.209,0.831,1.473,1.359c-3.248,3.778-7.668,7.253-12.125,7.253c-4.647,0-6.762-3.852-4.307-8.045l4.118-7.065
		c1.662-2.87,4.193-4.532,7.366-4.532c3.211,0,5.251,2.719,3.135,6.345l-0.566,0.983C52.676,59.213,47.917,59.705,45.385,58.647
		 M46.519,56.72c1.473,0.53,4.004,0.604,5.893-2.606l0.566-0.983c2.342-4.079-1.662-4.721-3.928-0.83L46.519,56.72z"/>
	<path d="M45.876,66.625c-2.241,0-4.04-0.896-4.935-2.456c-0.939-1.64-0.772-3.784,0.459-5.886l4.118-7.064
		c1.753-3.028,4.359-4.63,7.535-4.63c1.652,0,3.047,0.712,3.732,1.905c0.748,1.302,0.596,2.984-0.426,4.737l-0.566,0.982
		c-2.655,4.593-6.447,5.088-7.954,5.088c-0.848,0-1.662-0.142-2.366-0.408l-0.293,0.529c-0.814,1.425-1.006,2.586-0.556,3.36
		c0.386,0.665,1.247,1.031,2.423,1.031c2.459,0,6.018-2.286,9.068-5.825l0.266-0.303c0.057-0.063,0.146-0.084,0.225-0.051
		c0.593,0.254,1.298,0.906,1.572,1.453c0.035,0.069,0.025,0.155-0.027,0.216C55.8,62.038,51.079,66.625,45.876,66.625
		 M53.053,46.983c-3.028,0-5.516,1.533-7.195,4.434l-4.118,7.065c-1.158,1.978-1.325,3.979-0.458,5.491
		c0.823,1.436,2.497,2.259,4.594,2.259c4.981,0,9.551-4.388,11.887-7.081c-0.246-0.405-0.742-0.863-1.184-1.093l-0.167,0.189
		c-2.483,2.881-6.247,5.959-9.365,5.959c-1.323,0-2.304-0.435-2.763-1.227c-0.366-0.63-0.567-1.792,0.553-3.751l0.376-0.677
		c0.048-0.088,0.155-0.127,0.248-0.087c0.693,0.29,1.515,0.442,2.378,0.442c1.439,0,5.061-0.477,7.613-4.892l0.566-0.983
		c0.95-1.627,1.1-3.169,0.426-4.343C55.83,47.621,54.562,46.983,53.053,46.983 M48.089,57.194L48.089,57.194
		c-0.545,0-1.111-0.099-1.637-0.288c-0.055-0.02-0.098-0.062-0.118-0.118c-0.02-0.054-0.015-0.114,0.014-0.165l2.531-4.418
		c1.16-1.992,2.651-2.699,3.576-2.699c0.549,0,0.985,0.23,1.226,0.646c0.4,0.691,0.21,1.784-0.533,3.079l-0.566,0.983
		C51.132,56.677,49.338,57.194,48.089,57.194 M46.809,56.609c0.418,0.126,0.856,0.192,1.279,0.192h0.001
		c1.147,0,2.798-0.483,4.153-2.787l0.565-0.981c0.661-1.15,0.855-2.129,0.533-2.685c-0.215-0.371-0.6-0.449-0.885-0.449
		c-0.885,0-2.229,0.773-3.236,2.501L46.809,56.609z"/>
	<path d="M321.676,82.551H216.017c-1.284,0-2.324-1.04-2.324-2.323s1.04-2.324,2.324-2.324h105.659c1.284,0,2.324,1.041,2.324,2.324
		S322.96,82.551,321.676,82.551"/>
	<path d="M321.676,28.582H216.017c-1.284,0-2.324-1.04-2.324-2.324c0-1.283,1.04-2.324,2.324-2.324h105.659
		c1.284,0,2.324,1.041,2.324,2.324C324,27.542,322.96,28.582,321.676,28.582"/>
	<path d="M56.09,82.551H3.102c-1.283,0-2.324-1.04-2.324-2.323s1.041-2.324,2.324-2.324H56.09c1.283,0,2.324,1.041,2.324,2.324
		S57.373,82.551,56.09,82.551"/>
	<path d="M56.09,28.582H3.102c-1.283,0-2.324-1.04-2.324-2.324c0-1.283,1.041-2.324,2.324-2.324H56.09
		c1.283,0,2.324,1.041,2.324,2.324C58.414,27.542,57.373,28.582,56.09,28.582"/>
	<polygon points="219.492,58.576 219.492,60.008 221.938,60.008 221.938,61.915 219.492,61.915 219.492,65.309 216.272,65.309 
		216.272,56.303 223.805,56.303 223.805,58.576 	"/>
	<path d="M229.959,65.525c-2.664,0-4.529-1.515-4.529-3.962v-1.527c0-2.447,1.865-3.947,4.529-3.947c2.65,0,4.516,1.5,4.516,3.947
		v1.527C234.475,64.01,232.609,65.525,229.959,65.525 M231.176,59.684c0-0.879-0.474-1.284-1.217-1.284
		c-0.759,0-1.23,0.405-1.23,1.284v2.231c0,0.879,0.472,1.283,1.23,1.283c0.743,0,1.217-0.404,1.217-1.283V59.684z"/>
	<path d="M240.851,65.525c-2.664,0-4.529-1.515-4.529-3.962v-1.527c0-2.447,1.865-3.947,4.529-3.947c2.651,0,4.516,1.5,4.516,3.947
		v1.527C245.366,64.01,243.502,65.525,240.851,65.525 M242.067,59.684c0-0.879-0.473-1.284-1.217-1.284
		c-0.758,0-1.23,0.405-1.23,1.284v2.231c0,0.879,0.473,1.283,1.23,1.283c0.744,0,1.217-0.404,1.217-1.283V59.684z"/>
	<path d="M251.979,65.308h-4.463v-9.004h4.463c3.068,0,4.379,1.596,4.379,3.597v1.92C256.357,63.807,255.047,65.308,251.979,65.308
		 M253.1,59.711c0-0.852-0.445-1.23-1.312-1.23h-1.054v4.638h1.054c0.866,0,1.312-0.365,1.312-1.23V59.711z"/>
	<path d="M262.427,65.525c-1.947,0-3.435-0.689-4.651-1.663l1.5-1.73c0.987,0.798,2.272,1.298,3.219,1.298
		c0.797,0,1.054-0.298,1.054-0.676c0-1.19-5.179-0.676-5.179-3.745c0-1.555,1.582-2.92,4.084-2.92c1.853,0,3.231,0.729,4.218,1.689
		l-1.703,1.46c-0.797-0.648-1.718-1.055-2.556-1.055c-0.662,0-1.013,0.244-1.013,0.595c0,1.204,5.246,0.812,5.246,3.731
		C266.646,64.201,264.847,65.525,262.427,65.525"/>
	<polygon points="274.394,65.308 274.394,62.104 271.894,62.104 271.894,65.308 268.675,65.308 268.675,56.304 271.894,56.304 
		271.894,59.819 274.394,59.819 274.394,56.304 277.612,56.304 277.612,65.308 	"/>
	<polygon points="280.075,65.308 280.075,56.304 287.755,56.304 287.755,58.629 283.294,58.629 283.294,59.995 286.229,59.995 
		286.229,61.428 283.294,61.428 283.294,62.807 287.755,62.807 287.755,65.308 	"/>
	<path d="M294.509,65.308h-4.463v-9.004h4.463c3.068,0,4.379,1.596,4.379,3.597v1.92C298.888,63.807,297.577,65.308,294.509,65.308
		 M295.63,59.711c0-0.852-0.445-1.23-1.312-1.23h-1.054v4.638h1.054c0.866,0,1.312-0.365,1.312-1.23V59.711z"/>
</g>
</svg>
